<svg version="1.1" id="Layer_1" xmlns="http://www.w3.org/2000/svg" xmlns:xlink="http://www.w3.org/1999/xlink" x="0px" y="0px"
	 width="100%" viewBox="0 0 500 500" enable-background="new 0 0 500 500" xml:space="preserve">
<path fill="#000000" opacity="1.000000" stroke="none" 
	d="
M237.000000,501.000000 
	C158.000015,501.000000 79.500038,501.000000 1.000042,501.000000 
	C1.000028,334.333405 1.000028,167.666779 1.000014,1.000132 
	C167.666565,1.000088 334.333130,1.000088 500.999756,1.000044 
	C500.999847,167.666519 500.999847,334.333038 500.999939,500.999786 
	C413.166656,501.000000 325.333344,501.000000 237.000000,501.000000 
M238.407120,250.087433 
	C238.312317,250.394241 238.217499,250.701035 238.058960,251.421478 
	C238.058960,251.421478 237.885178,251.802216 237.230103,252.129501 
	C235.024033,257.024658 232.817947,261.919830 230.611877,266.814972 
	C231.048798,267.203552 231.485718,267.592133 231.922638,267.980682 
	C235.974014,264.377838 240.025391,260.774994 244.139862,257.208679 
	C244.139862,257.208679 244.199524,257.166779 244.905609,257.171051 
	C245.282578,256.455536 245.659546,255.740051 245.998550,255.001099 
	C245.998550,255.001099 246.026001,255.036728 246.673004,254.970032 
	C247.470810,254.325165 248.268616,253.680298 249.556824,252.769485 
	C250.062546,252.226562 250.568253,251.683640 251.757172,251.092285 
	C253.199509,249.747391 254.641846,248.402496 256.585175,246.775406 
	C257.074982,246.484406 257.564789,246.193405 258.728577,245.797440 
	C261.525330,241.884232 264.322113,237.971039 267.690735,233.674454 
	C269.839661,230.142639 271.988617,226.610825 274.752686,222.781937 
	C275.853882,221.412216 277.035278,220.098785 278.042816,218.663330 
	C283.321838,211.142349 288.556793,203.590454 294.116425,195.411926 
	C296.637207,191.900131 299.158020,188.388336 301.863434,184.619308 
	C304.318054,188.184586 306.499176,191.352615 309.524689,195.747131 
	C310.898285,190.385300 311.839783,186.710068 312.935242,182.217743 
	C313.554718,179.494827 314.174164,176.771927 314.951050,173.230728 
	C315.208740,169.967224 315.466400,166.703735 315.724091,163.440231 
	C311.885223,164.806061 308.045380,166.169144 304.212555,167.551697 
	C304.103027,167.591232 304.068176,167.837814 303.234985,168.047241 
	C300.142181,169.419235 297.049408,170.791229 293.437561,172.036880 
	C293.195526,172.227615 292.953491,172.418350 292.638763,172.545654 
	C292.638763,172.545654 292.542694,172.554398 291.822052,172.775238 
	C289.760101,173.636490 287.698120,174.497742 285.636169,175.358994 
	C285.733856,175.802109 285.831543,176.245224 285.929199,176.688339 
	C289.593964,178.093735 293.258728,179.499146 296.846191,180.874893 
	C291.688660,186.428024 286.798248,191.693542 281.299866,197.226562 
	C272.801575,205.804153 264.303314,214.381744 255.198883,223.216110 
	C252.135315,227.145172 249.071732,231.074234 245.363739,235.340256 
	C243.867554,238.808395 242.371368,242.276535 240.410019,246.027771 
	C240.308182,246.354980 240.206345,246.682190 240.105606,247.632736 
	C240.051956,248.044312 239.998291,248.455887 239.448318,249.038376 
	C239.268051,249.326965 239.087769,249.615555 238.920837,249.987549 
	C238.920837,249.987549 238.888519,249.903915 238.407120,250.087433 
M158.945465,313.728973 
	C158.284744,314.121216 157.624023,314.513428 156.928497,314.913086 
	C156.928497,314.913086 156.895645,314.926727 156.249023,314.909424 
	C155.555984,318.260651 154.862946,321.611847 154.058380,325.743225 
	C155.296204,328.908203 156.534042,332.073151 158.004852,335.833801 
	C157.830826,335.970734 156.196732,336.611633 155.977448,337.574738 
	C155.615189,339.165710 155.601547,342.088043 156.420624,342.499512 
	C163.464890,346.038849 172.845642,346.530151 176.837158,337.728729 
	C176.898193,333.292358 177.095535,328.852417 176.978638,324.420746 
	C176.878830,320.635956 176.418137,316.860718 175.279160,313.053925 
	C173.453583,313.323151 171.628021,313.592407 169.203796,313.948212 
	C168.498383,313.608490 167.792969,313.268799 166.622803,312.293182 
	C164.310257,312.643738 161.997726,312.994293 159.536362,313.425812 
	C159.536362,313.425812 159.516083,313.594055 158.945465,313.728973 
M288.908661,220.981720 
	C288.908661,220.981720 288.796814,221.076859 289.118164,221.759277 
	C290.725403,225.870392 292.814026,229.868301 293.814178,234.122147 
	C294.980286,239.081680 297.540009,238.137085 301.856262,236.846924 
	C299.443634,230.465103 297.240723,224.638092 294.754517,218.139969 
	C293.715027,214.947021 291.245514,214.197617 288.583954,215.364273 
	C287.891113,215.667969 288.274292,218.426498 288.134521,220.579651 
	C288.425964,220.749466 288.717438,220.919281 288.908661,220.981720 
M354.020660,321.060455 
	C354.020660,318.479950 354.020660,315.899475 354.020660,312.986023 
	C352.003235,313.074341 350.509979,313.139679 349.149567,313.199219 
	C349.149567,319.472168 349.149567,325.222168 349.004700,331.782684 
	C348.743622,335.268188 350.248169,336.590485 354.152496,335.589142 
	C354.152496,331.047974 354.152496,326.504974 354.020660,321.060455 
M213.766068,317.320129 
	C210.851990,311.859650 205.819733,312.904968 200.314590,313.061035 
	C198.424011,314.161469 196.533447,315.261902 194.935349,316.192078 
	C193.929245,314.957062 192.865463,312.464081 191.662292,312.394897 
	C187.917206,312.179535 184.119308,312.882690 179.788681,313.280396 
	C180.159042,317.554504 180.480255,321.261383 180.204407,325.464508 
	C180.560684,328.502747 180.916962,331.541016 181.316879,334.951477 
	C183.366318,334.762878 184.904144,334.621368 186.798187,334.447052 
	C186.798187,330.288147 186.798187,326.614349 186.933853,322.273956 
	C188.982010,321.018036 191.030167,319.762085 193.780640,318.075470 
	C194.018417,321.310638 194.150391,323.106232 194.153702,325.659821 
	C195.137436,330.951141 197.225281,335.464478 203.353897,335.885284 
	C207.782654,336.189331 212.338608,335.987427 214.701874,331.125122 
	C213.795547,329.676666 212.984909,328.381134 212.868210,327.095825 
	C213.842834,326.918976 214.817459,326.742126 215.792053,326.565247 
	C215.212646,323.701508 214.633224,320.837738 213.766068,317.320129 
M124.895271,308.468536 
	C124.606331,308.283386 124.317390,308.098206 123.849998,307.494629 
	C123.671158,307.236969 123.435287,307.052094 122.960243,306.409790 
	C122.629303,306.306671 122.298363,306.203552 121.351891,306.048889 
	C120.941635,306.015594 120.531387,305.982300 119.797600,305.409058 
	C119.199539,305.331421 118.601471,305.253784 117.340828,305.088196 
	C116.897453,305.119476 116.454071,305.150757 115.504128,305.081177 
	C115.335487,305.115845 115.166847,305.150513 114.096786,305.081909 
	C111.078094,305.123749 108.059410,305.165588 104.200760,305.171844 
	C103.853882,310.430969 103.507011,315.690125 103.021896,321.874756 
	C103.021896,326.249695 103.021896,330.624634 103.021896,334.983307 
	C108.698654,334.983307 113.622993,335.063324 118.543579,334.961456 
	C123.765816,334.853333 127.702385,331.060883 128.546768,325.649506 
	C128.890411,324.909424 129.234039,324.169342 129.863281,322.814148 
	C130.514481,324.302338 130.872894,325.121460 131.076401,326.729919 
	C130.804306,330.905090 132.753601,333.756317 136.646500,334.898712 
	C144.596191,337.231598 148.074417,336.185577 151.650131,330.859253 
	C150.786072,329.582642 149.921997,328.306061 149.848526,326.963806 
	C153.817368,325.136505 154.362518,320.972748 150.951553,317.260071 
	C146.767624,311.041962 138.967972,310.482147 132.377441,316.299225 
	C131.263901,316.532196 130.150345,316.765167 129.006317,316.217346 
	C127.679558,313.803223 126.352798,311.389099 125.005463,308.996918 
	C125.005463,308.996918 125.025223,308.981232 124.895271,308.468536 
M213.984528,255.161697 
	C213.356003,252.845917 212.257721,250.542465 212.196472,248.211777 
	C212.067856,243.316132 209.463272,243.563599 204.534409,244.741730 
	C206.468124,249.856216 208.218170,254.484894 210.028183,259.858337 
	C213.012772,264.550964 215.997360,269.243622 219.602905,274.213745 
	C225.976105,281.080872 234.031342,284.985046 243.013443,286.909302 
	C247.656387,287.903992 253.075119,287.298981 252.744446,294.890656 
	C253.567429,293.084259 253.532043,291.511993 254.030243,290.132416 
	C254.387589,289.142944 255.436981,287.695679 256.214478,287.672211 
	C267.300781,287.337494 276.746826,283.127441 285.710602,275.758270 
	C288.907501,271.108002 292.104401,266.457733 295.829529,261.229492 
	C298.494934,255.466766 301.094757,249.690674 299.709290,243.026718 
	C296.170807,242.723114 294.142670,243.562881 293.574249,247.543503 
	C293.065125,251.108765 291.357635,254.502899 290.015930,258.684479 
	C287.322937,262.424835 284.629974,266.165161 281.312927,270.174042 
	C274.438507,278.063751 264.587280,280.090851 255.185120,282.828033 
	C255.111740,282.230377 254.972443,281.095795 254.953506,279.103058 
	C254.425430,276.524658 256.816040,272.613129 251.076553,271.817871 
	C250.662537,274.943329 250.272018,277.891327 249.114914,280.922852 
	C246.502853,280.614136 243.885513,280.344238 241.279724,279.989532 
	C232.845367,278.841522 227.539734,272.387421 220.964005,267.268646 
	C218.671616,263.504822 216.379227,259.741028 213.984528,255.161697 
M377.979401,319.225555 
	C376.490692,317.148804 375.196869,313.508423 373.476074,313.293945 
	C368.671814,312.695160 363.686157,313.462555 358.789581,313.890442 
	C358.454315,313.919739 358.099854,315.590607 358.042755,316.515900 
	C357.951538,317.994110 358.102478,319.487274 357.995453,321.860687 
	C357.994507,323.689636 357.687714,325.589813 358.091797,327.324432 
	C358.400665,328.650360 359.608917,329.766754 360.417114,330.976349 
	C361.603668,329.794769 363.426605,328.793152 363.823944,327.388367 
	C364.385773,325.401978 363.894653,323.117798 364.182770,320.301575 
	C368.542450,316.539825 371.132294,317.106842 371.980042,322.946991 
	C371.993744,326.096191 371.721710,329.285553 372.156097,332.375610 
	C372.340454,333.686981 374.006470,334.790070 374.999115,335.987793 
	C375.997253,334.794281 377.753113,333.661377 377.854248,332.396179 
	C378.182678,328.286682 377.905273,324.128784 377.979401,319.225555 
M217.981064,328.681824 
	C220.518219,334.136078 226.154282,337.062958 231.431839,335.666962 
	C238.052261,333.915741 238.446838,333.207062 236.934464,327.002411 
	C242.670609,325.056274 239.092392,321.816071 237.939377,318.450317 
	C237.939377,318.450317 237.826370,317.970673 237.823792,317.484528 
	C237.662125,317.176605 237.411743,316.983948 237.014465,316.157013 
	C231.593994,310.634369 223.785355,309.831879 218.155960,316.871613 
	C218.144699,320.565277 218.133438,324.258942 217.981064,328.681824 
M188.137085,224.776520 
	C187.680786,229.238052 187.580719,233.774689 186.660431,238.138382 
	C185.860931,241.929413 186.665695,243.820831 190.654343,243.883514 
	C192.730606,243.916153 194.807816,243.889267 197.185043,243.889267 
	C196.730652,237.357422 196.334045,231.656082 196.190628,225.310898 
	C196.079880,223.902618 196.111481,222.465210 195.830612,221.091721 
	C195.106262,217.549454 194.243744,214.035431 193.307556,209.947433 
	C196.557510,210.406464 198.292343,210.651489 200.771729,210.993927 
	C203.170761,212.030121 205.569778,213.066330 208.322617,214.849731 
	C208.652039,219.876648 208.981461,224.903549 209.142303,230.808289 
	C209.539520,233.205154 207.457382,236.561630 212.370544,237.008865 
	C218.555542,237.571854 224.658279,239.008133 230.839462,239.661041 
	C232.726501,239.860382 235.338684,239.319839 236.611710,238.082230 
	C240.770996,234.038681 244.465881,229.517441 248.978424,224.971542 
	C251.675919,222.820633 254.539886,220.845459 257.035614,218.481552 
	C261.944550,213.831940 266.756073,209.067749 271.401093,204.155380 
	C274.622253,200.748825 277.497528,197.015152 281.004578,193.475266 
	C282.103302,192.269791 283.201996,191.064316 284.867279,189.237228 
	C272.730499,183.952942 261.539001,178.885468 250.148605,174.313629 
	C248.262421,173.556549 245.330948,174.546005 243.183044,175.445740 
	C233.397629,179.544830 223.719528,183.900146 213.323883,188.339188 
	C209.228241,190.617264 205.132614,192.895325 200.523544,195.082245 
	C200.352768,195.114670 200.181992,195.147079 199.540985,195.165283 
	C199.229828,195.304855 199.038971,195.541489 198.172455,195.929047 
	C192.871140,198.034317 187.569809,200.139587 181.625122,202.500351 
	C183.206177,203.833664 184.152328,205.270096 185.351852,205.528015 
	C189.602997,206.442032 190.487427,209.243469 190.003525,212.910248 
	C189.514847,216.613281 188.837463,220.291412 188.137085,224.776520 
M394.678131,330.816345 
	C394.840210,329.884857 395.002289,328.953339 395.637421,327.882172 
	C395.968231,327.658630 396.046570,327.367249 396.175964,326.320343 
	C397.601318,322.925690 399.223083,319.593811 400.338898,316.100281 
	C400.699341,314.971832 399.730652,313.418823 399.369995,312.060028 
	C397.583984,312.732025 394.769165,312.935608 394.209137,314.165771 
	C392.665222,317.556976 392.064850,321.377808 390.819366,325.565918 
	C389.942108,325.366943 389.064880,325.167969 388.024170,324.191467 
	C387.184143,321.793243 386.031464,319.453461 385.569763,316.984497 
	C384.634125,311.981262 381.529144,312.745178 377.490387,313.475220 
	C379.209900,316.996307 380.674744,319.995911 382.224426,323.732452 
	C382.957672,325.811432 383.524384,327.968353 384.453949,329.955505 
	C387.886383,337.292816 387.715454,337.837952 380.305450,340.759888 
	C379.369537,344.408783 381.790924,345.644409 384.367279,344.835205 
	C386.793915,344.072998 389.346466,342.177185 390.740601,340.055359 
	C392.438080,337.471924 392.982330,334.130737 394.678131,330.816345 
M252.643890,327.767242 
	C255.399658,324.743042 258.740234,322.064728 260.779785,318.616852 
	C264.191528,312.849213 262.729248,307.368469 256.640503,305.429291 
	C253.159286,304.320557 248.933289,304.408813 245.346466,305.251495 
	C243.535934,305.676880 242.236725,308.891724 241.079605,311.045807 
	C240.797195,311.571503 242.321548,313.754974 242.443893,313.707397 
	C244.164154,313.038269 245.783493,312.110992 247.431885,311.255096 
	C248.003906,310.958069 248.595169,310.432953 249.165909,310.448303 
	C250.884567,310.494568 253.095123,310.185120 254.156631,311.111359 
	C255.020645,311.865265 255.201141,314.671173 254.472702,315.744629 
	C252.250565,319.019318 249.442780,321.896545 246.250671,325.202545 
	C245.080490,326.380341 243.621658,327.390839 242.816376,328.780121 
	C241.899643,330.361755 240.952789,332.384247 241.225510,334.013092 
	C241.372696,334.892120 244.013489,335.820068 245.574982,335.907257 
	C250.058548,336.157593 254.565674,335.960266 259.063080,335.996552 
	C263.227386,336.030121 263.778687,334.038849 262.352478,330.642181 
	C258.481079,330.642181 254.834213,330.642181 250.824661,330.642181 
	C251.367737,329.470306 251.699066,328.755371 252.643890,327.767242 
M291.207886,323.226013 
	C294.511597,316.003906 287.998291,305.425568 282.600098,305.071014 
	C277.187988,304.715637 271.734344,304.992920 266.166077,304.992920 
	C266.166077,311.376221 266.166077,317.174927 266.006134,323.886353 
	C266.006653,326.217712 266.197845,328.568298 265.964966,330.876129 
	C265.571472,334.775909 266.985748,336.518402 271.026611,336.007568 
	C274.602783,335.555450 278.220917,335.426147 281.791595,334.941498 
	C287.280884,334.196472 290.888062,329.718018 291.207886,323.226013 
M343.805237,318.014435 
	C345.253967,317.554901 346.702698,317.095367 349.117859,316.329285 
	C346.561371,314.042542 343.550629,312.648529 343.301239,310.867798 
	C342.700897,306.581238 340.457397,306.733093 337.465942,307.226990 
	C336.966827,310.508484 333.251678,314.489563 331.353638,314.084625 
	C328.974365,313.577057 326.546356,313.143280 324.123260,313.033661 
	C320.731018,312.880280 316.845093,312.507751 316.077698,317.171875 
	C315.147461,322.825684 316.608154,324.517090 322.528839,326.037689 
	C324.378021,326.512604 326.121582,327.398712 327.941437,328.820923 
	C324.736908,333.914856 320.290833,330.057983 316.457489,329.980042 
	C316.207001,333.912506 316.262146,333.789337 319.811584,335.378845 
	C324.415039,337.440369 329.055939,336.753632 332.370605,333.701233 
	C334.383148,331.847931 335.402069,327.822906 331.792877,324.317535 
	C322.755859,321.744843 322.068604,321.222900 322.591095,316.657288 
	C324.626129,317.197174 326.558228,317.789215 328.527557,318.204987 
	C329.892548,318.493164 331.311493,318.678986 332.701447,318.652679 
	C334.089844,318.626434 335.472198,318.279205 336.932129,318.993073 
	C336.962769,322.949768 336.830017,326.916382 337.069489,330.860413 
	C337.314636,334.897583 341.606476,337.444916 345.225250,335.798065 
	C345.966553,335.460693 346.780670,334.417755 346.825104,333.657043 
	C346.869904,332.890564 346.065796,331.437958 345.516754,331.379242 
	C342.523987,331.059357 342.988953,328.994415 343.005829,327.067780 
	C343.031799,324.100281 343.033661,321.132599 343.805237,318.014435 
M293.939514,318.805695 
	C291.931946,324.298065 292.397766,329.487793 296.449249,333.854462 
	C298.969452,336.570740 306.030792,337.213623 309.440155,335.009949 
	C310.911835,334.058716 312.921936,331.344086 312.513184,330.551056 
	C311.105408,327.819550 309.011871,328.836090 306.898346,330.537506 
	C304.179321,332.726288 300.984192,331.110352 300.252930,326.807556 
	C304.040375,326.807556 307.744873,327.020569 311.400330,326.690552 
	C312.658112,326.576996 314.789490,325.106964 314.788269,324.259064 
	C314.785248,322.160126 313.780975,320.062622 313.015930,317.227905 
	C309.163208,311.843933 299.474396,311.125549 295.349152,316.058777 
	C295.079315,316.227112 294.948669,316.470245 294.479340,317.044373 
	C294.361298,317.358185 294.243225,317.671997 293.939514,318.805695 
M266.871033,240.337891 
	C265.067780,243.035522 263.264557,245.733154 261.336426,248.617599 
	C277.398132,248.843628 288.556610,232.462494 281.256409,218.836456 
	C276.411804,225.952087 271.752167,232.796036 266.871033,240.337891 
M310.029510,200.411163 
	C305.880798,198.646820 301.732117,196.882477 297.351288,195.019424 
	C293.201996,201.059235 289.210480,206.869431 285.218933,212.679642 
	C285.565826,213.143723 285.912720,213.607803 286.259613,214.071884 
	C294.712524,210.371964 303.165405,206.672058 311.618317,202.972122 
	C311.293030,202.272934 310.967773,201.573730 310.029510,200.411163 
M288.707306,238.015717 
	C287.805969,239.095428 286.904633,240.175125 286.003296,241.254822 
	C287.078064,241.795105 288.165436,242.819794 289.225464,242.792282 
	C293.936615,242.669937 298.642883,242.283646 303.344299,241.909500 
	C304.835876,241.790817 306.306915,241.413940 307.787354,241.155228 
	C307.756989,240.824753 307.726624,240.494263 307.696228,240.163773 
	C301.652222,239.483627 295.608215,238.803467 288.707306,238.015717 
M349.916504,304.024628 
	C347.577850,305.742432 347.803589,307.877502 349.417206,309.752502 
	C350.064026,310.504089 352.309479,311.065521 352.643372,310.682251 
	C353.719635,309.446655 354.934448,307.634766 354.738739,306.234772 
	C354.609497,305.310333 352.147827,304.711975 349.916504,304.024628 
z"/>
<path fill="#1C6299" opacity="1.000000" stroke="none" 
	d="
M207.968811,214.102539 
	C205.569778,213.066330 203.170761,212.030121 200.205963,210.643066 
	C198.257401,209.530334 196.898773,208.719894 195.486710,208.016785 
	C192.627380,206.593033 189.739059,205.227463 186.122498,203.480316 
	C191.307281,200.410767 195.137848,198.142960 198.968430,195.875153 
	C199.038971,195.541489 199.229828,195.304855 199.778900,195.555161 
	C200.942505,196.944321 201.748550,198.542114 202.830750,198.758438 
	C203.739380,198.940079 204.969864,197.511627 206.713425,196.364792 
	C204.030319,195.801651 202.533646,195.487534 201.036972,195.173401 
	C205.132614,192.895325 209.228241,190.617264 213.651764,188.613800 
	C212.976868,189.977142 211.998016,191.089203 210.964371,192.147766 
	C210.006927,193.128311 208.990875,194.051605 207.830826,195.119812 
	C207.599197,195.497253 207.537354,195.755005 207.475525,196.012756 
	C207.650146,195.674973 207.824768,195.337189 208.448486,194.999268 
	C220.242645,195.263565 231.592789,195.868530 242.931366,195.699356 
	C254.958115,195.519913 266.973877,194.605301 278.830261,194.302795 
	C275.376648,197.626404 272.174377,200.761673 268.766907,203.655319 
	C266.516815,205.566116 264.148102,208.183838 261.521057,208.623215 
	C256.476349,209.466995 251.210403,209.027359 246.035950,209.047302 
	C238.548065,209.076141 231.022171,208.578384 223.584503,209.186218 
	C218.169846,209.628723 212.155884,209.292206 207.968811,214.102539 
z"/>
<path fill="#1E477D" opacity="1.000000" stroke="none" 
	d="
M208.145721,214.476135 
	C212.155884,209.292206 218.169846,209.628723 223.584503,209.186218 
	C231.022171,208.578384 238.548065,209.076141 246.035950,209.047302 
	C251.210403,209.027359 256.476349,209.466995 261.521057,208.623215 
	C264.148102,208.183838 266.516815,205.566116 268.766907,203.655319 
	C272.174377,200.761673 275.376648,197.626404 279.032867,194.094223 
	C279.775543,193.538971 280.151459,193.483292 280.527344,193.427628 
	C277.497528,197.015152 274.622253,200.748825 271.401093,204.155380 
	C266.756073,209.067749 261.944550,213.831940 257.035614,218.481552 
	C254.539886,220.845459 251.675919,222.820633 248.260681,225.052094 
	C243.128159,226.681427 238.799042,229.160278 234.279907,229.576691 
	C226.016174,230.338104 217.640091,229.879959 209.310867,229.930466 
	C208.981461,224.903549 208.652039,219.876648 208.145721,214.476135 
z"/>
<path fill="#1E6BA1" opacity="1.000000" stroke="none" 
	d="
M280.765961,193.451447 
	C280.151459,193.483292 279.775543,193.538971 279.197052,193.803192 
	C266.973877,194.605301 254.958115,195.519913 242.931366,195.699356 
	C231.592789,195.868530 220.242645,195.263565 208.448792,194.999573 
	C208.000000,195.000000 208.000610,195.000092 208.000610,195.000092 
	C208.990875,194.051605 210.006927,193.128311 210.964371,192.147766 
	C211.998016,191.089203 212.976868,189.977142 213.991241,188.525879 
	C223.719528,183.900146 233.397629,179.544830 243.183044,175.445740 
	C245.330948,174.546005 248.262421,173.556549 250.148605,174.313629 
	C261.539001,178.885468 272.730499,183.952942 284.867279,189.237228 
	C283.201996,191.064316 282.103302,192.269791 280.765961,193.451447 
z"/>
<path fill="#797A79" opacity="1.000000" stroke="none" 
	d="
M254.833160,279.961182 
	C254.972443,281.095795 255.111740,282.230377 255.185120,282.828033 
	C264.587280,280.090851 274.438507,278.063751 281.848755,270.315308 
	C283.261383,272.287689 284.138184,274.118744 285.014984,275.949829 
	C276.746826,283.127441 267.300781,287.337494 256.214478,287.672211 
	C255.436981,287.695679 254.387589,289.142944 254.030243,290.132416 
	C253.532043,291.511993 253.567429,293.084259 252.744446,294.890656 
	C253.075119,287.298981 247.656387,287.903992 243.013443,286.909302 
	C234.031342,284.985046 225.976105,281.080872 219.332123,273.742096 
	C219.713531,271.512238 220.365723,269.753998 221.017914,267.995789 
	C227.539734,272.387421 232.845367,278.841522 241.279724,279.989532 
	C243.885513,280.344238 246.502853,280.614136 249.673462,281.137451 
	C251.765732,280.888458 253.299438,280.424805 254.833160,279.961182 
z"/>
<path fill="#D8D8DA" opacity="1.000000" stroke="none" 
	d="
M293.807037,196.049286 
	C288.556793,203.590454 283.321838,211.142349 278.042816,218.663330 
	C277.035278,220.098785 275.853882,221.412216 273.974976,222.921860 
	C267.399841,223.027634 261.602448,222.993484 255.805038,222.959335 
	C264.303314,214.381744 272.801575,205.804153 281.979797,197.113373 
	C286.236511,195.053711 289.854645,193.592499 293.807037,196.049286 
z"/>
<path fill="#233666" opacity="1.000000" stroke="none" 
	d="
M175.999298,338.034943 
	C172.845642,346.530151 163.464890,346.038849 156.420624,342.499512 
	C155.601547,342.088043 155.615189,339.165710 155.977448,337.574738 
	C156.196732,336.611633 157.830826,335.970734 158.004852,335.833801 
	C156.534042,332.073151 155.296204,328.908203 154.426453,325.451141 
	C155.982529,326.203674 157.170532,327.248260 158.436371,328.361298 
	C159.498901,326.451752 160.191559,325.206909 160.962982,324.345032 
	C162.002182,326.401123 162.731873,329.272552 163.968613,329.510681 
	C167.026199,330.099457 169.287430,328.141937 170.357330,325.226929 
	C174.107193,331.593231 174.296646,325.360016 175.891342,324.511658 
	C175.971283,329.323090 175.985291,333.679016 175.999298,338.034943 
z"/>
<path fill="#ABACAD" opacity="1.000000" stroke="none" 
	d="
M293.961731,195.730606 
	C289.854645,193.592499 286.236511,195.053711 282.283783,196.979614 
	C286.798248,191.693542 291.688660,186.428024 296.846191,180.874893 
	C293.258728,179.499146 289.593964,178.093735 285.929199,176.688339 
	C285.831543,176.245224 285.733856,175.802109 285.636169,175.358994 
	C287.698120,174.497742 289.760101,173.636490 292.412415,172.972031 
	C298.650665,178.351776 305.406097,181.314529 312.781311,183.034851 
	C311.839783,186.710068 310.898285,190.385300 309.524689,195.747131 
	C306.499176,191.352615 304.318054,188.184586 301.863434,184.619308 
	C299.158020,188.388336 296.637207,191.900131 293.961731,195.730606 
z"/>
<path fill="#233666" opacity="1.000000" stroke="none" 
	d="
M209.226593,230.369385 
	C217.640091,229.879959 226.016174,230.338104 234.279907,229.576691 
	C238.799042,229.160278 243.128159,226.681427 247.941162,225.156296 
	C244.465881,229.517441 240.770996,234.038681 236.611710,238.082230 
	C235.338684,239.319839 232.726501,239.860382 230.839462,239.661041 
	C224.658279,239.008133 218.555542,237.571854 212.370544,237.008865 
	C207.457382,236.561630 209.539520,233.205154 209.226593,230.369385 
z"/>
<path fill="#BF8E45" opacity="1.000000" stroke="none" 
	d="
M313.179016,317.964539 
	C313.780975,320.062622 314.785248,322.160126 314.788269,324.259064 
	C314.789490,325.106964 312.658112,326.576996 311.400330,326.690552 
	C307.744873,327.020569 304.040375,326.807556 300.252930,326.807556 
	C300.984192,331.110352 304.179321,332.726288 306.898346,330.537506 
	C309.011871,328.836090 311.105408,327.819550 312.513184,330.551056 
	C312.921936,331.344086 310.911835,334.058716 309.440155,335.009949 
	C306.030792,337.213623 298.969452,336.570740 296.449249,333.854462 
	C292.397766,329.487793 291.931946,324.298065 294.231476,318.244965 
	C294.716034,317.408783 294.860626,317.110107 294.957275,316.788177 
	C294.948669,316.470245 295.079315,316.227112 295.980469,316.050751 
	C298.417938,316.430267 300.224030,316.817810 301.833191,317.528870 
	C300.994934,318.986237 300.353668,320.120056 299.199677,322.160400 
	C303.213379,321.920074 305.912140,321.758514 309.345947,321.552917 
	C308.053345,319.729462 307.512390,318.966309 307.164673,318.015076 
	C309.298309,317.872833 311.238647,317.918701 313.179016,317.964539 
z"/>
<path fill="#275D8B" opacity="1.000000" stroke="none" 
	d="
M194.282364,324.901794 
	C194.150391,323.106232 194.018417,321.310638 193.780640,318.075470 
	C191.030167,319.762085 188.982010,321.018036 186.560242,322.694092 
	C184.391571,323.732239 182.596512,324.350250 180.801453,324.968262 
	C180.480255,321.261383 180.159042,317.554504 179.788681,313.280396 
	C184.119308,312.882690 187.917206,312.179535 191.662292,312.394897 
	C192.865463,312.464081 193.929245,314.957062 194.935349,316.192078 
	C196.533447,315.261902 198.424011,314.161469 200.618530,313.436951 
	C200.725784,314.588409 200.529099,315.363922 200.464783,315.617523 
	C202.836441,316.378113 204.930084,317.049530 206.648834,317.816742 
	C204.945282,318.482574 203.616592,319.052643 202.287918,319.622711 
	C202.440720,319.988068 202.593521,320.353394 202.746323,320.718719 
	C204.611771,320.718719 206.477203,320.718719 208.367233,320.718719 
	C208.223251,319.611053 208.117691,318.798920 208.333603,318.051544 
	C209.775757,318.745605 210.896439,319.374939 212.049652,320.347961 
	C213.054703,324.231567 211.111267,324.798401 208.139099,325.054810 
	C205.058212,325.320587 202.035400,326.259552 198.787628,327.112671 
	C197.152847,326.514740 195.717606,325.708252 194.282364,324.901794 
z"/>
<path fill="#233666" opacity="1.000000" stroke="none" 
	d="
M266.981781,239.988937 
	C271.752167,232.796036 276.411804,225.952087 281.256409,218.836456 
	C288.556610,232.462494 277.398132,248.843628 261.336426,248.617599 
	C263.264557,245.733154 265.067780,243.035522 266.981781,239.988937 
z"/>
<path fill="#D8AE5E" opacity="1.000000" stroke="none" 
	d="
M327.913513,328.096588 
	C326.121582,327.398712 324.378021,326.512604 322.528839,326.037689 
	C316.608154,324.517090 315.147461,322.825684 316.077698,317.171875 
	C316.845093,312.507751 320.731018,312.880280 324.123260,313.033661 
	C326.546356,313.143280 328.974365,313.577057 331.353638,314.084625 
	C333.251678,314.489563 336.966827,310.508484 337.465942,307.226990 
	C340.457397,306.733093 342.700897,306.581238 343.301239,310.867798 
	C343.550629,312.648529 346.561371,314.042542 349.117859,316.329285 
	C346.702698,317.095367 345.253967,317.554901 343.364716,317.802582 
	C340.901855,317.751373 338.879517,317.912018 336.857178,318.072662 
	C335.472198,318.279205 334.089844,318.626434 332.701447,318.652679 
	C331.311493,318.678986 329.892548,318.493164 328.527557,318.204987 
	C326.558228,317.789215 324.626129,317.197174 322.591095,316.657288 
	C322.068604,321.222900 322.755859,321.744843 331.702637,324.825134 
	C330.379456,326.254028 329.146484,327.175323 327.913513,328.096588 
z"/>
<path fill="#D8AE5E" opacity="1.000000" stroke="none" 
	d="
M266.166077,322.973633 
	C266.166077,317.174927 266.166077,311.376221 266.166077,304.992920 
	C271.734344,304.992920 277.187988,304.715637 282.600098,305.071014 
	C287.998291,305.425568 294.511597,316.003906 290.628113,323.603149 
	C288.989655,323.978516 287.931030,323.976776 286.930237,323.575012 
	C286.669006,321.938507 286.193298,320.718994 286.057434,319.462708 
	C285.412628,313.499512 283.143097,310.632141 277.570740,309.312347 
	C274.131592,308.497772 271.791931,309.311401 271.957062,313.570129 
	C272.078369,316.698181 271.878448,319.838684 271.417755,322.977875 
	C269.397919,322.979279 267.781982,322.976471 266.166077,322.973633 
z"/>
<path fill="#D8AE5E" opacity="1.000000" stroke="none" 
	d="
M246.862900,324.928467 
	C249.442780,321.896545 252.250565,319.019318 254.472702,315.744629 
	C255.201141,314.671173 255.020645,311.865265 254.156631,311.111359 
	C253.095123,310.185120 250.884567,310.494568 249.165909,310.448303 
	C248.595169,310.432953 248.003906,310.958069 247.431885,311.255096 
	C245.783493,312.110992 244.164154,313.038269 242.443893,313.707397 
	C242.321548,313.754974 240.797195,311.571503 241.079605,311.045807 
	C242.236725,308.891724 243.535934,305.676880 245.346466,305.251495 
	C248.933289,304.408813 253.159286,304.320557 256.640503,305.429291 
	C262.729248,307.368469 264.191528,312.849213 260.779785,318.616852 
	C258.740234,322.064728 255.399658,324.743042 251.954987,327.872650 
	C249.798355,326.961517 248.330627,325.945007 246.862900,324.928467 
z"/>
<path fill="#ABACAD" opacity="1.000000" stroke="none" 
	d="
M255.501953,223.087723 
	C261.602448,222.993484 267.399841,223.027634 273.667419,223.070404 
	C271.988617,226.610825 269.839661,230.142639 266.981384,233.862152 
	C262.746460,234.071564 259.220886,234.093262 255.424377,234.115814 
	C254.791000,234.082367 254.428558,234.048080 253.995819,233.725403 
	C252.968063,233.653885 252.010574,233.870728 250.830963,234.234802 
	C249.901474,234.893005 249.194107,235.403992 248.154480,235.879333 
	C247.217529,235.563553 246.612839,235.283417 246.008148,235.003281 
	C249.071732,231.074234 252.135315,227.145172 255.501953,223.087723 
z"/>
<path fill="#275D8B" opacity="1.000000" stroke="none" 
	d="
M310.335999,200.642853 
	C310.967773,201.573730 311.293030,202.272934 311.618317,202.972137 
	C303.165405,206.672058 294.712524,210.371964 286.259613,214.071884 
	C285.912720,213.607803 285.565826,213.143723 285.218933,212.679642 
	C289.210480,206.869431 293.201996,201.059235 297.351288,195.019424 
	C301.732117,196.882477 305.880798,198.646820 310.335999,200.642853 
z"/>
<path fill="#233666" opacity="1.000000" stroke="none" 
	d="
M128.042953,326.017731 
	C127.702385,331.060883 123.765816,334.853333 118.543579,334.961456 
	C113.622993,335.063324 108.698654,334.983307 103.021896,334.983307 
	C103.021896,330.624634 103.021896,326.249695 103.405090,321.506104 
	C105.797920,321.405121 107.807556,321.672760 109.895401,322.367981 
	C109.973610,325.025848 109.973610,327.256104 109.973610,329.598206 
	C115.535339,329.597198 120.221077,329.052216 123.209167,324.119781 
	C125.032791,324.844360 126.537872,325.431061 128.042953,326.017731 
z"/>
<path fill="#1E477D" opacity="1.000000" stroke="none" 
	d="
M245.685944,235.171768 
	C246.612839,235.283417 247.217529,235.563553 248.125214,236.257568 
	C249.318192,243.367386 250.506104,244.126678 257.126892,242.427795 
	C257.586792,243.813217 257.820679,244.857803 258.054596,245.902405 
	C257.564789,246.193405 257.074982,246.484406 255.962646,246.914001 
	C253.918060,248.415298 252.496017,249.778015 251.073975,251.140717 
	C250.568253,251.683640 250.062546,252.226562 248.957321,252.902908 
	C247.580551,253.703140 246.803284,254.369934 246.026001,255.036728 
	C246.026001,255.036728 245.998550,255.001099 245.697784,255.066193 
	C244.997849,255.809784 244.598679,256.488281 244.199524,257.166779 
	C244.199524,257.166779 244.139862,257.208679 243.742279,257.145111 
	C241.678879,257.600800 240.013062,258.120056 237.885178,258.783325 
	C237.885178,256.192291 237.885178,253.997253 237.885178,251.802216 
	C237.885178,251.802216 238.058960,251.421478 238.259918,251.061600 
	C238.676178,250.474777 238.818726,250.208847 238.888519,249.903915 
	C238.888519,249.903915 238.920837,249.987549 239.137375,249.828369 
	C239.550827,249.401947 239.747726,249.134705 239.944626,248.867462 
	C239.998291,248.455887 240.051956,248.044312 240.284088,247.143646 
	C240.600113,246.351242 240.737656,246.047958 240.875214,245.744659 
	C242.371368,242.276535 243.867554,238.808395 245.685944,235.171768 
z"/>
<path fill="#BF8E45" opacity="1.000000" stroke="none" 
	d="
M286.872375,323.975037 
	C287.931030,323.976776 288.989655,323.978516 290.445190,323.971802 
	C290.888062,329.718018 287.280884,334.196472 281.791595,334.941498 
	C278.220917,335.426147 274.602783,335.555450 271.026611,336.007568 
	C266.985748,336.518402 265.571472,334.775909 265.964966,330.876129 
	C266.197845,328.568298 266.006653,326.217712 266.086121,323.429993 
	C267.781982,322.976471 269.397919,322.979279 271.499969,323.420197 
	C271.986115,326.124359 271.986115,328.390442 271.986115,330.815369 
	C278.628601,331.264160 283.477051,329.181396 286.872375,323.975037 
z"/>
<path fill="#275D8B" opacity="1.000000" stroke="none" 
	d="
M109.817184,321.940430 
	C107.807556,321.672760 105.797920,321.405121 103.474213,321.043365 
	C103.507011,315.690125 103.853882,310.430969 104.609421,305.576447 
	C105.249390,307.280029 105.480698,308.578979 105.809982,310.428162 
	C111.788277,306.467377 116.584633,308.643036 121.207359,311.361481 
	C122.946480,312.384155 124.357666,313.964508 125.918350,315.290619 
	C125.620903,313.185394 125.323463,311.080200 125.026031,308.974976 
	C126.352798,311.389099 127.679558,313.803223 128.771454,316.845642 
	C127.887321,320.296112 127.040947,322.822327 123.210327,320.591400 
	C120.176651,311.488159 116.862335,309.277252 109.817184,311.823425 
	C109.817184,315.075806 109.817184,318.508118 109.817184,321.940430 
z"/>
<path fill="#1E477D" opacity="1.000000" stroke="none" 
	d="
M123.281219,320.973785 
	C127.040947,322.822327 127.887321,320.296112 128.786713,317.236053 
	C130.150345,316.765167 131.263901,316.532196 132.876190,316.354980 
	C133.374924,317.750214 133.374924,319.089661 133.374924,320.772675 
	C135.416916,320.485138 137.085648,320.250183 138.693451,320.378052 
	C138.534790,320.872986 138.408447,320.993408 138.348389,321.140839 
	C138.300766,321.257782 138.334351,321.407745 138.331879,321.543030 
	C140.741653,321.354523 143.151443,321.166016 145.881119,321.155090 
	C147.338943,322.255035 148.476883,323.177399 150.669785,324.954895 
	C150.836334,321.697784 150.931915,319.828430 151.027496,317.959045 
	C154.362518,320.972748 153.817368,325.136505 149.148468,326.931458 
	C147.266205,326.813263 145.922058,326.318207 144.929398,326.711121 
	C140.194992,328.585144 135.655060,328.770233 131.231323,325.940582 
	C130.872894,325.121460 130.514481,324.302338 129.863281,322.814148 
	C129.234039,324.169342 128.890411,324.909424 128.294861,325.833618 
	C126.537872,325.431061 125.032791,324.844360 123.272591,323.745148 
	C123.105392,322.479675 123.193306,321.726746 123.281219,320.973785 
z"/>
<path fill="#BF8E45" opacity="1.000000" stroke="none" 
	d="
M395.872406,327.007996 
	C396.046570,327.367249 395.968231,327.658630 395.118164,328.159698 
	C394.407745,329.330597 394.216583,330.223938 394.025391,331.117310 
	C392.982330,334.130737 392.438080,337.471924 390.740601,340.055359 
	C389.346466,342.177185 386.793915,344.072998 384.367279,344.835205 
	C381.790924,345.644409 379.369537,344.408783 380.307495,340.757904 
	C387.715454,337.837952 387.886383,337.292816 384.453949,329.955505 
	C383.524384,327.968353 382.957672,325.811432 382.538086,323.389160 
	C384.630402,323.686890 386.408997,324.327942 388.187622,324.968994 
	C389.064880,325.167969 389.942108,325.366943 391.290283,325.318756 
	C393.131592,325.717072 394.502014,326.362518 395.872406,327.007996 
z"/>
<path fill="#959598" opacity="1.000000" stroke="none" 
	d="
M312.858276,182.626297 
	C305.406097,181.314529 298.650665,178.351776 292.772705,172.861603 
	C292.542694,172.554398 292.638763,172.545654 292.911224,172.612976 
	C293.519104,172.624237 293.776733,172.451889 293.956604,172.163239 
	C297.049408,170.791229 300.142181,169.419235 303.613403,168.389374 
	C307.592438,170.504013 311.193024,172.276520 314.793640,174.049011 
	C314.174164,176.771927 313.554718,179.494827 312.858276,182.626297 
z"/>
<path fill="#233666" opacity="1.000000" stroke="none" 
	d="
M195.937424,225.954742 
	C196.334045,231.656082 196.730652,237.357422 197.185043,243.889267 
	C194.807816,243.889267 192.730606,243.916153 190.654343,243.883514 
	C186.665695,243.820831 185.860931,241.929413 186.660431,238.138382 
	C187.580719,233.774689 187.680786,229.238052 188.458374,224.526978 
	C191.165588,224.836533 193.551514,225.395645 195.937424,225.954742 
z"/>
<path fill="#275D8B" opacity="1.000000" stroke="none" 
	d="
M196.064026,225.632812 
	C193.551514,225.395645 191.165588,224.836533 188.511230,224.128937 
	C188.837463,220.291412 189.514847,216.613281 190.003525,212.910248 
	C190.487427,209.243469 189.602997,206.442032 185.351852,205.528015 
	C184.152328,205.270096 183.206177,203.833664 181.625122,202.500351 
	C187.569809,200.139587 192.871140,198.034317 198.570435,195.902100 
	C195.137848,198.142960 191.307281,200.410767 186.122498,203.480316 
	C189.739059,205.227463 192.627380,206.593033 195.486710,208.016785 
	C196.898773,208.719894 198.257401,209.530334 199.833679,210.594360 
	C198.292343,210.651489 196.557510,210.406464 193.307556,209.947433 
	C194.243744,214.035431 195.106262,217.549454 195.830612,221.091721 
	C196.111481,222.465210 196.079880,223.902618 196.064026,225.632812 
z"/>
<path fill="#275D8B" opacity="1.000000" stroke="none" 
	d="
M237.826370,317.970673 
	C237.826370,317.970673 237.939377,318.450317 237.984604,319.106262 
	C237.328873,321.421692 236.627899,323.081177 235.926926,324.740692 
	C234.997238,324.305573 233.917404,324.046082 233.165375,323.403168 
	C230.673096,321.272430 228.298935,319.003571 225.879471,316.787689 
	C225.825302,317.519623 225.771149,318.251556 225.716980,318.983490 
	C224.040878,320.163727 222.364777,321.343933 220.688675,322.524170 
	C220.081528,320.620544 219.474396,318.716949 218.867249,316.813324 
	C223.785355,309.831879 231.593994,310.634369 237.117203,316.741882 
	C237.371536,317.588989 237.573685,317.803619 237.826370,317.970673 
z"/>
<path fill="#1E477D" opacity="1.000000" stroke="none" 
	d="
M218.511597,316.842468 
	C219.474396,318.716949 220.081528,320.620544 220.688675,322.524170 
	C222.364777,321.343933 224.040878,320.163727 225.716980,318.983490 
	C225.771149,318.251556 225.825302,317.519623 225.879471,316.787689 
	C228.298935,319.003571 230.673096,321.272430 233.165375,323.403168 
	C233.917404,324.046082 234.997238,324.305573 235.926926,324.740692 
	C236.627899,323.081177 237.328873,321.421692 238.042969,319.345612 
	C239.092392,321.816071 242.670609,325.056274 236.139328,327.042236 
	C229.603516,327.372253 223.862854,327.662445 218.122177,327.952637 
	C218.133438,324.258942 218.144699,320.565277 218.511597,316.842468 
z"/>
<path fill="#233666" opacity="1.000000" stroke="none" 
	d="
M131.153870,326.335266 
	C135.655060,328.770233 140.194992,328.585144 144.929398,326.711121 
	C145.922058,326.318207 147.266205,326.813263 148.753174,326.964294 
	C149.921997,328.306061 150.786072,329.582642 151.646667,330.861633 
	C148.074417,336.185577 144.596191,337.231598 136.646500,334.898712 
	C132.753601,333.756317 130.804306,330.905090 131.153870,326.335266 
z"/>
<path fill="#BF8E45" opacity="1.000000" stroke="none" 
	d="
M246.556793,325.065491 
	C248.330627,325.945007 249.798355,326.961517 251.648254,328.009216 
	C251.699066,328.755371 251.367737,329.470306 250.824661,330.642181 
	C254.834213,330.642181 258.481079,330.642181 262.352478,330.642181 
	C263.778687,334.038849 263.227386,336.030121 259.063080,335.996552 
	C254.565674,335.960266 250.058548,336.157593 245.574982,335.907257 
	C244.013489,335.820068 241.372696,334.892120 241.225510,334.013092 
	C240.952789,332.384247 241.899643,330.361755 242.816376,328.780121 
	C243.621658,327.390839 245.080490,326.380341 246.556793,325.065491 
z"/>
<path fill="#D8AE5E" opacity="1.000000" stroke="none" 
	d="
M372.117249,322.038757 
	C371.132294,317.106842 368.542450,316.539825 363.728424,320.711060 
	C361.566376,321.071747 359.858704,321.022949 358.151001,320.974121 
	C358.102478,319.487274 357.951538,317.994110 358.042755,316.515900 
	C358.099854,315.590607 358.454315,313.919739 358.789581,313.890442 
	C363.686157,313.462555 368.671814,312.695160 373.476074,313.293945 
	C375.196869,313.508423 376.490692,317.148804 377.657745,319.531128 
	C375.675140,320.757111 375.020721,324.063049 372.117249,322.038757 
z"/>
<path fill="#233666" opacity="1.000000" stroke="none" 
	d="
M194.218033,325.280823 
	C195.717606,325.708252 197.152847,326.514740 199.180756,327.199280 
	C203.907028,327.080109 208.040649,327.082825 212.174255,327.085571 
	C212.984909,328.381134 213.795547,329.676666 214.701874,331.125122 
	C212.338608,335.987427 207.782654,336.189331 203.353897,335.885284 
	C197.225281,335.464478 195.137436,330.951141 194.218033,325.280823 
z"/>
<path fill="#233666" opacity="1.000000" stroke="none" 
	d="
M218.051620,328.317230 
	C223.862854,327.662445 229.603516,327.372253 235.769989,327.096283 
	C238.446838,333.207062 238.052261,333.915741 231.431839,335.666962 
	C226.154282,337.062958 220.518219,334.136078 218.051620,328.317230 
z"/>
<path fill="#275D8B" opacity="1.000000" stroke="none" 
	d="
M138.754364,320.015198 
	C137.085648,320.250183 135.416916,320.485138 133.374924,320.772675 
	C133.374924,319.089661 133.374924,317.750214 133.140839,316.187866 
	C138.967972,310.482147 146.767624,311.041962 150.989532,317.609558 
	C150.931915,319.828430 150.836334,321.697784 150.669785,324.954895 
	C148.476883,323.177399 147.338943,322.255035 145.764954,321.035156 
	C145.328873,320.737671 145.444611,320.424500 145.688019,320.205231 
	C145.430969,319.057495 144.930527,318.129059 144.430115,317.200592 
	C143.630524,318.379913 142.830948,319.559204 141.695404,320.750946 
	C140.491058,320.514008 139.622711,320.264618 138.754364,320.015198 
z"/>
<path fill="#BF8E45" opacity="1.000000" stroke="none" 
	d="
M336.894653,318.532867 
	C338.879517,317.912018 340.901855,317.751373 342.984985,317.877869 
	C343.033661,321.132599 343.031799,324.100281 343.005829,327.067780 
	C342.988953,328.994415 342.523987,331.059357 345.516754,331.379242 
	C346.065796,331.437958 346.869904,332.890564 346.825104,333.657043 
	C346.780670,334.417755 345.966553,335.460693 345.225250,335.798065 
	C341.606476,337.444916 337.314636,334.897583 337.069489,330.860413 
	C336.830017,326.916382 336.962769,322.949768 336.894653,318.532867 
z"/>
<path fill="#D8D8DA" opacity="1.000000" stroke="none" 
	d="
M295.037842,218.811066 
	C297.240723,224.638092 299.443634,230.465103 301.856262,236.846924 
	C297.540009,238.137085 294.980286,239.081680 293.814178,234.122147 
	C292.814026,229.868301 290.725403,225.870392 289.311646,221.333923 
	C291.670837,221.057358 294.281433,222.379654 295.037842,218.811066 
z"/>
<path fill="#ABACAD" opacity="1.000000" stroke="none" 
	d="
M290.178894,257.972534 
	C291.357635,254.502899 293.065125,251.108765 293.574249,247.543503 
	C294.142670,243.562881 296.170807,242.723114 299.709290,243.026718 
	C301.094757,249.690674 298.494934,255.466766 295.406830,261.177185 
	C293.382385,260.074097 291.780640,259.023315 290.178894,257.972534 
z"/>
<path fill="#BF8E45" opacity="1.000000" stroke="none" 
	d="
M327.927490,328.458740 
	C329.146484,327.175323 330.379456,326.254028 331.893250,325.157013 
	C335.402069,327.822906 334.383148,331.847931 332.370605,333.701233 
	C329.055939,336.753632 324.415039,337.440369 319.811584,335.378845 
	C316.262146,333.789337 316.207001,333.912506 316.457489,329.980042 
	C320.290833,330.057983 324.736908,333.914856 327.927490,328.458740 
z"/>
<path fill="#959598" opacity="1.000000" stroke="none" 
	d="
M290.097412,258.328491 
	C291.780640,259.023315 293.382385,260.074097 295.142700,261.466187 
	C292.104401,266.457733 288.907501,271.108002 285.362793,275.854065 
	C284.138184,274.118744 283.261383,272.287689 282.160767,270.181061 
	C284.629974,266.165161 287.322937,262.424835 290.097412,258.328491 
z"/>
<path fill="#959598" opacity="1.000000" stroke="none" 
	d="
M220.990967,267.632202 
	C220.365723,269.753998 219.713531,271.512238 219.021637,273.603333 
	C215.997360,269.243622 213.012772,264.550964 210.065826,259.125244 
	C211.431259,257.587158 212.759048,256.782196 214.086838,255.977219 
	C216.379227,259.741028 218.671616,263.504822 220.990967,267.632202 
z"/>
<path fill="#1E6BA1" opacity="1.000000" stroke="none" 
	d="
M125.015747,308.985962 
	C125.323463,311.080200 125.620903,313.185394 125.918350,315.290619 
	C124.357666,313.964508 122.946480,312.384155 121.207359,311.361481 
	C116.584633,308.643036 111.788277,306.467377 105.809982,310.428162 
	C105.480698,308.578979 105.249390,307.280029 105.029396,305.594238 
	C108.059410,305.165588 111.078094,305.123749 114.653778,305.250244 
	C115.210762,305.418610 115.652710,305.471161 115.652710,305.471161 
	C115.652710,305.471161 116.010696,305.182037 116.010696,305.182037 
	C116.454071,305.150757 116.897453,305.119476 117.890846,305.324738 
	C119.000954,305.690521 119.561043,305.819763 120.121132,305.949005 
	C120.531387,305.982300 120.941635,306.015594 121.822067,306.259308 
	C122.530319,306.708344 122.813698,306.865082 123.142372,306.939941 
	C123.435287,307.052094 123.671158,307.236969 124.047218,307.930786 
	C124.504700,308.571716 124.764961,308.776489 125.025223,308.981232 
	C125.025223,308.981232 125.005463,308.996918 125.015747,308.985962 
z"/>
<path fill="#797A79" opacity="1.000000" stroke="none" 
	d="
M314.872345,173.639862 
	C311.193024,172.276520 307.592438,170.504013 303.995178,168.359680 
	C304.068176,167.837814 304.103027,167.591232 304.212555,167.551697 
	C308.045380,166.169144 311.885223,164.806061 315.724060,163.440231 
	C315.466400,166.703735 315.208740,169.967224 314.872345,173.639862 
z"/>
<path fill="#D8AE5E" opacity="1.000000" stroke="none" 
	d="
M396.024170,326.664185 
	C394.502014,326.362518 393.131592,325.717072 391.426270,325.050140 
	C392.064850,321.377808 392.665222,317.556976 394.209137,314.165771 
	C394.769165,312.935608 397.583984,312.732025 399.369995,312.060028 
	C399.730652,313.418823 400.699341,314.971832 400.338898,316.100281 
	C399.223083,319.593811 397.601318,322.925690 396.024170,326.664185 
z"/>
<path fill="#1C6299" opacity="1.000000" stroke="none" 
	d="
M167.087555,312.929077 
	C167.792969,313.268799 168.498383,313.608490 169.909958,313.929260 
	C175.607391,314.973633 175.984116,315.867249 173.141708,320.346710 
	C169.614731,319.083191 166.533417,312.246887 162.106689,319.085144 
	C162.089752,319.082703 162.058029,319.081512 161.832230,319.172882 
	C161.320145,319.449646 161.131210,319.706635 161.028992,320.029175 
	C161.018356,320.023163 161.040665,320.049652 160.708099,320.182251 
	C159.171677,320.491150 157.967850,320.667480 156.610336,320.866302 
	C156.724014,318.499725 156.809830,316.713226 156.895645,314.926727 
	C156.895645,314.926727 156.928497,314.913086 157.282684,314.933899 
	C158.263290,314.501160 158.889694,314.047607 159.516083,313.594055 
	C159.516083,313.594055 159.536362,313.425812 160.008255,313.536560 
	C162.682617,313.407898 164.885086,313.168488 167.087555,312.929077 
z"/>
<path fill="#BF8E45" opacity="1.000000" stroke="none" 
	d="
M372.048645,322.492859 
	C375.020721,324.063049 375.675140,320.757111 377.598602,319.913086 
	C377.905273,324.128784 378.182678,328.286682 377.854248,332.396179 
	C377.753113,333.661377 375.997253,334.794281 374.999115,335.987793 
	C374.006470,334.790070 372.340454,333.686981 372.156097,332.375610 
	C371.721710,329.285553 371.993744,326.096191 372.048645,322.492859 
z"/>
<path fill="#ABACAD" opacity="1.000000" stroke="none" 
	d="
M214.035675,255.569458 
	C212.759048,256.782196 211.431259,257.587158 210.035843,258.752869 
	C208.218170,254.484894 206.468124,249.856216 204.534409,244.741730 
	C209.463272,243.563599 212.067856,243.316132 212.196472,248.211777 
	C212.257721,250.542465 213.356003,252.845917 214.035675,255.569458 
z"/>
<path fill="#1E477D" opacity="1.000000" stroke="none" 
	d="
M162.123627,319.087585 
	C166.533417,312.246887 169.614731,319.083191 173.141708,320.346710 
	C175.984116,315.867249 175.607391,314.973633 170.209290,313.885986 
	C171.628021,313.592407 173.453583,313.323151 175.636566,313.518036 
	C175.937775,317.340149 175.881607,320.698120 175.825424,324.056122 
	C174.296646,325.360016 174.107193,331.593231 170.315491,324.835327 
	C169.181488,318.329437 167.806030,317.446686 162.123627,319.087585 
z"/>
<path fill="#959598" opacity="1.000000" stroke="none" 
	d="
M258.391602,245.849915 
	C257.820679,244.857803 257.586792,243.813217 257.199585,242.134491 
	C256.595978,239.038559 256.145630,236.576752 255.695297,234.114944 
	C259.220886,234.093262 262.746460,234.071564 266.695435,234.053848 
	C264.322113,237.971039 261.525330,241.884232 258.391602,245.849915 
z"/>
<path fill="#1E477D" opacity="1.000000" stroke="none" 
	d="
M212.521240,327.090698 
	C208.040649,327.082825 203.907028,327.080109 199.380310,326.990723 
	C202.035400,326.259552 205.058212,325.320587 208.139099,325.054810 
	C211.111267,324.798401 213.054703,324.231567 212.282043,320.174072 
	C213.005875,319.095642 213.529846,318.534821 214.053802,317.973999 
	C214.633224,320.837738 215.212646,323.701508 215.792053,326.565247 
	C214.817459,326.742126 213.842834,326.918976 212.521240,327.090698 
z"/>
<path fill="#D8AE5E" opacity="1.000000" stroke="none" 
	d="
M388.105896,324.580231 
	C386.408997,324.327942 384.630402,323.686890 382.495667,323.020691 
	C380.674744,319.995911 379.209900,316.996307 377.490387,313.475220 
	C381.529144,312.745178 384.634125,311.981262 385.569763,316.984497 
	C386.031464,319.453461 387.184143,321.793243 388.105896,324.580231 
z"/>
<path fill="#ABACAD" opacity="1.000000" stroke="none" 
	d="
M289.135742,238.069519 
	C295.608215,238.803467 301.652222,239.483627 307.696228,240.163773 
	C307.726624,240.494263 307.756989,240.824753 307.787354,241.155228 
	C306.306915,241.413940 304.835876,241.790817 303.344299,241.909500 
	C298.642883,242.283646 293.936615,242.669937 289.225464,242.792282 
	C288.165436,242.819794 287.078064,241.795105 286.003296,241.254822 
	C286.904633,240.175125 287.805969,239.095428 289.135742,238.069519 
z"/>
<path fill="#233666" opacity="1.000000" stroke="none" 
	d="
M237.557648,251.965851 
	C237.885178,253.997253 237.885178,256.192291 237.885178,258.783325 
	C240.013062,258.120056 241.678879,257.600800 243.710739,257.126831 
	C240.025391,260.774994 235.974014,264.377838 231.922638,267.980682 
	C231.485718,267.592133 231.048798,267.203552 230.611877,266.814972 
	C232.817947,261.919830 235.024033,257.024658 237.557648,251.965851 
z"/>
<path fill="#BF8E45" opacity="1.000000" stroke="none" 
	d="
M354.152496,321.962006 
	C354.152496,326.504974 354.152496,331.047974 354.152496,335.589142 
	C350.248169,336.590485 348.743622,335.268188 349.317932,331.066101 
	C349.863983,327.635956 350.096863,324.922394 350.301361,322.539398 
	C351.731232,322.325012 352.941864,322.143524 354.152496,321.962006 
z"/>
<path fill="#233666" opacity="1.000000" stroke="none" 
	d="
M180.502930,325.216370 
	C182.596512,324.350250 184.391571,323.732239 186.492401,323.027405 
	C186.798187,326.614349 186.798187,330.288147 186.798187,334.447052 
	C184.904144,334.621368 183.366318,334.762878 181.316879,334.951477 
	C180.916962,331.541016 180.560684,328.502747 180.502930,325.216370 
z"/>
<path fill="#D8AE5E" opacity="1.000000" stroke="none" 
	d="
M302.030151,317.205322 
	C300.224030,316.817810 298.417938,316.430267 296.188660,315.995789 
	C299.474396,311.125549 309.163208,311.843933 313.097473,317.596252 
	C311.238647,317.918701 309.298309,317.872833 306.836182,317.826111 
	C304.886322,317.618622 303.458221,317.411987 302.030151,317.205322 
z"/>
<path fill="#D8AE5E" opacity="1.000000" stroke="none" 
	d="
M354.086578,321.511230 
	C352.941864,322.143524 351.731232,322.325012 350.301361,322.539398 
	C350.096863,324.922394 349.863983,327.635956 349.390350,330.660828 
	C349.149567,325.222168 349.149567,319.472168 349.149567,313.199219 
	C350.509979,313.139679 352.003235,313.074341 354.020660,312.986023 
	C354.020660,315.899475 354.020660,318.479950 354.086578,321.511230 
z"/>
<path fill="#1C6299" opacity="1.000000" stroke="none" 
	d="
M213.909943,317.647064 
	C213.529846,318.534821 213.005875,319.095642 212.249496,319.830353 
	C210.896439,319.374939 209.775757,318.745605 208.086746,317.984344 
	C207.353500,317.808594 207.188614,317.764771 207.023712,317.720978 
	C204.930084,317.049530 202.836441,316.378113 200.464783,315.617523 
	C200.529099,315.363922 200.725784,314.588409 200.980927,313.494720 
	C205.819733,312.904968 210.851990,311.859650 213.909943,317.647064 
z"/>
<path fill="#BF8E45" opacity="1.000000" stroke="none" 
	d="
M358.073242,321.417419 
	C359.858704,321.022949 361.566376,321.071747 363.563843,321.040710 
	C363.894653,323.117798 364.385773,325.401978 363.823944,327.388367 
	C363.426605,328.793152 361.603668,329.794769 360.417114,330.976349 
	C359.608917,329.766754 358.400665,328.650360 358.091797,327.324432 
	C357.687714,325.589813 357.994507,323.689636 358.073242,321.417419 
z"/>
<path fill="#1E477D" opacity="1.000000" stroke="none" 
	d="
M156.572327,314.918091 
	C156.809830,316.713226 156.724014,318.499725 156.610336,320.866302 
	C157.967850,320.667480 159.171677,320.491150 160.706940,320.573608 
	C160.986969,321.875610 160.935577,322.918854 160.884201,323.962067 
	C160.191559,325.206909 159.498901,326.451752 158.436371,328.361298 
	C157.170532,327.248260 155.982529,326.203674 154.482208,325.061066 
	C154.862946,321.611847 155.555984,318.260651 156.572327,314.918091 
z"/>
<path fill="#ABACAD" opacity="1.000000" stroke="none" 
	d="
M294.896179,218.475525 
	C294.281433,222.379654 291.670837,221.057358 289.150970,220.992722 
	C288.796814,221.076859 288.908661,220.981720 288.829102,220.855194 
	C288.647278,220.423691 288.451843,220.199982 288.163269,220.057526 
	C288.274292,218.426498 287.891113,215.667969 288.583954,215.364273 
	C291.245514,214.197617 293.715027,214.947021 294.896179,218.475525 
z"/>
<path fill="#959598" opacity="1.000000" stroke="none" 
	d="
M254.893326,279.532104 
	C253.299438,280.424805 251.765732,280.888458 250.056763,281.095703 
	C250.272018,277.891327 250.662537,274.943329 251.076553,271.817871 
	C256.816040,272.613129 254.425430,276.524658 254.893326,279.532104 
z"/>
<path fill="#D8AE5E" opacity="1.000000" stroke="none" 
	d="
M350.323486,303.996124 
	C352.147827,304.711975 354.609497,305.310333 354.738739,306.234772 
	C354.934448,307.634766 353.719635,309.446655 352.643372,310.682251 
	C352.309479,311.065521 350.064026,310.504089 349.417206,309.752502 
	C347.803589,307.877502 347.577850,305.742432 350.323486,303.996124 
z"/>
<path fill="#D8D8DA" opacity="1.000000" stroke="none" 
	d="
M175.891342,324.511658 
	C175.881607,320.698120 175.937775,317.340149 176.055511,313.531677 
	C176.418137,316.860718 176.878830,320.635956 176.978638,324.420746 
	C177.095535,328.852417 176.898193,333.292358 176.418228,337.881836 
	C175.985291,333.679016 175.971283,329.323090 175.891342,324.511658 
z"/>
<path fill="#1E6BA1" opacity="1.000000" stroke="none" 
	d="
M200.780258,195.127823 
	C202.533646,195.487534 204.030319,195.801651 206.713425,196.364792 
	C204.969864,197.511627 203.739380,198.940079 202.830750,198.758438 
	C201.748550,198.542114 200.942505,196.944321 200.014023,195.562256 
	C200.181992,195.147079 200.352768,195.114670 200.780258,195.127823 
z"/>
<path fill="#233666" opacity="1.000000" stroke="none" 
	d="
M251.415573,251.116516 
	C252.496017,249.778015 253.918060,248.415298 255.712128,247.055084 
	C254.641846,248.402496 253.199509,249.747391 251.415573,251.116516 
z"/>
<path fill="#1E477D" opacity="1.000000" stroke="none" 
	d="
M166.855179,312.611145 
	C164.885086,313.168488 162.682617,313.407898 160.082672,313.496063 
	C161.997726,312.994293 164.310257,312.643738 166.855179,312.611145 
z"/>
<path fill="#233666" opacity="1.000000" stroke="none" 
	d="
M246.349503,255.003387 
	C246.803284,254.369934 247.580551,253.703140 248.712112,253.035889 
	C248.268616,253.680298 247.470810,254.325165 246.349503,255.003387 
z"/>
<path fill="#233666" opacity="1.000000" stroke="none" 
	d="
M244.552551,257.168915 
	C244.598679,256.488281 244.997849,255.809784 245.716766,255.077911 
	C245.659546,255.740051 245.282578,256.455536 244.552551,257.168915 
z"/>
<path fill="#D8AE5E" opacity="1.000000" stroke="none" 
	d="
M394.351746,330.966827 
	C394.216583,330.223938 394.407745,329.330597 394.881653,328.229553 
	C395.002289,328.953339 394.840210,329.884857 394.351746,330.966827 
z"/>
<path fill="#1E477D" opacity="1.000000" stroke="none" 
	d="
M159.230774,313.661499 
	C158.889694,314.047607 158.263290,314.501160 157.300095,314.930176 
	C157.624023,314.513428 158.284744,314.121216 159.230774,313.661499 
z"/>
<path fill="#275D8B" opacity="1.000000" stroke="none" 
	d="
M119.959366,305.679016 
	C119.561043,305.819763 119.000954,305.690521 118.222137,305.368713 
	C118.601471,305.253784 119.199539,305.331421 119.959366,305.679016 
z"/>
<path fill="#D8D8DA" opacity="1.000000" stroke="none" 
	d="
M288.148895,220.318588 
	C288.451843,220.199982 288.647278,220.423691 288.879211,220.908875 
	C288.717438,220.919281 288.425964,220.749466 288.148895,220.318588 
z"/>
<path fill="#ABACAD" opacity="1.000000" stroke="none" 
	d="
M293.697083,172.100067 
	C293.776733,172.451889 293.519104,172.624237 292.947571,172.644684 
	C292.953491,172.418350 293.195526,172.227615 293.697083,172.100067 
z"/>
<path fill="#275D8B" opacity="1.000000" stroke="none" 
	d="
M123.051308,306.674866 
	C122.813698,306.865082 122.530319,306.708344 122.129829,306.285095 
	C122.298363,306.203552 122.629303,306.306671 123.051308,306.674866 
z"/>
<path fill="#233666" opacity="1.000000" stroke="none" 
	d="
M240.642609,245.886230 
	C240.737656,246.047958 240.600113,246.351242 240.283539,246.831970 
	C240.206345,246.682190 240.308182,246.354980 240.642609,245.886230 
z"/>
<path fill="#233666" opacity="1.000000" stroke="none" 
	d="
M239.696472,248.952911 
	C239.747726,249.134705 239.550827,249.401947 239.130707,249.786682 
	C239.087769,249.615555 239.268051,249.326965 239.696472,248.952911 
z"/>
<path fill="#233666" opacity="1.000000" stroke="none" 
	d="
M238.647827,249.995667 
	C238.818726,250.208847 238.676178,250.474777 238.291794,250.854782 
	C238.217499,250.701035 238.312317,250.394241 238.647827,249.995667 
z"/>
<path fill="#D8AE5E" opacity="1.000000" stroke="none" 
	d="
M294.718323,316.916260 
	C294.860626,317.110107 294.716034,317.408783 294.324280,317.835022 
	C294.243225,317.671997 294.361298,317.358185 294.718323,316.916260 
z"/>
<path fill="#1E477D" opacity="1.000000" stroke="none" 
	d="
M237.825073,317.727600 
	C237.573685,317.803619 237.371536,317.588989 237.146301,317.116699 
	C237.411743,316.983948 237.662125,317.176605 237.825073,317.727600 
z"/>
<path fill="#275D8B" opacity="1.000000" stroke="none" 
	d="
M115.757416,305.131592 
	C116.010696,305.182037 115.652710,305.471161 115.652710,305.471161 
	C115.652710,305.471161 115.210762,305.418610 115.104477,305.301880 
	C115.166847,305.150513 115.335487,305.115845 115.757416,305.131592 
z"/>
<path fill="#275D8B" opacity="1.000000" stroke="none" 
	d="
M124.960243,308.724884 
	C124.764961,308.776489 124.504700,308.571716 124.136444,308.139984 
	C124.317390,308.098206 124.606331,308.283386 124.960243,308.724884 
z"/>
<path fill="#1E6BA1" opacity="1.000000" stroke="none" 
	d="
M207.999695,194.999695 
	C207.824768,195.337189 207.650146,195.674973 207.475525,196.012756 
	C207.537354,195.755005 207.599197,195.497253 207.830811,195.119797 
	C208.000610,195.000092 208.000000,195.000000 207.999695,194.999695 
z"/>
<path fill="#000000" opacity="1.000000" stroke="none" 
	d="
M160.962967,324.345032 
	C160.935577,322.918854 160.986969,321.875610 161.039505,320.441040 
	C161.040665,320.049652 161.018356,320.023163 161.256592,319.941101 
	C161.779602,319.670166 161.967346,319.410980 162.058029,319.081512 
	C162.058029,319.081512 162.089752,319.082703 162.106689,319.085144 
	C167.806030,317.446686 169.181488,318.329437 170.108185,324.576721 
	C169.287430,328.141937 167.026199,330.099457 163.968613,329.510681 
	C162.731873,329.272552 162.002182,326.401123 160.962967,324.345032 
z"/>
<path fill="#000000" opacity="1.000000" stroke="none" 
	d="
M301.833191,317.528870 
	C303.458221,317.411987 304.886322,317.618622 306.642883,318.014221 
	C307.512390,318.966309 308.053345,319.729462 309.345947,321.552917 
	C305.912140,321.758514 303.213379,321.920074 299.199677,322.160400 
	C300.353668,320.120056 300.994934,318.986237 301.833191,317.528870 
z"/>
<path fill="#000000" opacity="1.000000" stroke="none" 
	d="
M206.648834,317.816742 
	C207.188614,317.764771 207.353500,317.808594 207.765259,317.919586 
	C208.117691,318.798920 208.223251,319.611053 208.367233,320.718719 
	C206.477203,320.718719 204.611771,320.718719 202.746323,320.718719 
	C202.593521,320.353394 202.440720,319.988068 202.287918,319.622711 
	C203.616592,319.052643 204.945282,318.482574 206.648834,317.816742 
z"/>
<path fill="#000000" opacity="1.000000" stroke="none" 
	d="
M286.930237,323.575012 
	C283.477051,329.181396 278.628601,331.264160 271.986115,330.815369 
	C271.986115,328.390442 271.986115,326.124359 271.903900,323.415955 
	C271.878448,319.838684 272.078369,316.698181 271.957062,313.570129 
	C271.791931,309.311401 274.131592,308.497772 277.570740,309.312347 
	C283.143097,310.632141 285.412628,313.499512 286.057434,319.462708 
	C286.193298,320.718994 286.669006,321.938507 286.930237,323.575012 
z"/>
<path fill="#D8AE5E" opacity="1.000000" stroke="none" 
	d="
M255.424377,234.115814 
	C256.145630,236.576752 256.595978,239.038559 256.973602,241.793671 
	C250.506104,244.126678 249.318192,243.367386 248.457458,236.293198 
	C249.194107,235.403992 249.901474,234.893005 251.205933,234.236588 
	C252.557358,234.065369 253.311737,234.039581 254.066101,234.013794 
	C254.428558,234.048080 254.791000,234.082367 255.424377,234.115814 
z"/>
<path fill="#959598" opacity="1.000000" stroke="none" 
	d="
M253.995819,233.725403 
	C253.311737,234.039581 252.557358,234.065369 251.428040,234.089371 
	C252.010574,233.870728 252.968063,233.653885 253.995819,233.725403 
z"/>
<path fill="#000000" opacity="1.000000" stroke="none" 
	d="
M123.210327,320.591400 
	C123.193306,321.726746 123.105392,322.479675 122.954056,323.607269 
	C120.221077,329.052216 115.535339,329.597198 109.973610,329.598206 
	C109.973610,327.256104 109.973610,325.025848 109.895401,322.367981 
	C109.817184,318.508118 109.817184,315.075806 109.817184,311.823425 
	C116.862335,309.277252 120.176651,311.488159 123.210327,320.591400 
z"/>
<path fill="#D8D8DA" opacity="1.000000" stroke="none" 
	d="
M145.444611,320.424500 
	C145.444611,320.424500 145.328873,320.737671 145.445038,320.857574 
	C143.151443,321.166016 140.741653,321.354523 138.331879,321.543030 
	C138.334351,321.407745 138.300766,321.257782 138.348389,321.140839 
	C138.408447,320.993408 138.534790,320.872986 138.693451,320.378052 
	C139.622711,320.264618 140.491058,320.514008 141.989410,320.780640 
	C143.561142,320.673401 144.502869,320.548950 145.444611,320.424500 
z"/>
<path fill="#1E477D" opacity="1.000000" stroke="none" 
	d="
M145.688019,320.205231 
	C144.502869,320.548950 143.561142,320.673401 142.325378,320.768188 
	C142.830948,319.559204 143.630524,318.379913 144.430115,317.200592 
	C144.930527,318.129059 145.430969,319.057495 145.688019,320.205231 
z"/>
<path fill="#1E477D" opacity="1.000000" stroke="none" 
	d="
M161.832230,319.172882 
	C161.967346,319.410980 161.779602,319.670166 161.267212,319.947144 
	C161.131210,319.706635 161.320145,319.449646 161.832230,319.172882 
z"/>
</svg>